<mxfile host="app.diagrams.net" agent="Mozilla/5.0 (Windows NT 10.0; Win64; x64) AppleWebKit/537.36 (KHTML, like Gecko) Chrome/131.0.0.0 Safari/537.36" version="25.0.3">
  <diagram name="페이지-1" id="93fYcZScVhBe9gkhM_4H">
    <mxGraphModel grid="1" page="0" gridSize="10" guides="0" tooltips="1" connect="1" arrows="1" fold="1" pageScale="1" pageWidth="827" pageHeight="1169" background="#FFFFFF" math="0" shadow="0">
      <root>
        <mxCell id="0" />
        <mxCell id="1" parent="0" />
        <mxCell id="vvx6dF9oFFzj_wwxJC3I-11" value="Task 동작 안내" style="swimlane;whiteSpace=wrap;html=1;startSize=30;fillColor=#eeeeee;strokeColor=#36393d;" vertex="1" parent="1">
          <mxGeometry x="-60" y="1600" width="1440" height="940" as="geometry">
            <mxRectangle x="41" y="350" width="100" height="30" as="alternateBounds" />
          </mxGeometry>
        </mxCell>
        <mxCell id="vvx6dF9oFFzj_wwxJC3I-27" value="Meas Task" style="swimlane;whiteSpace=wrap;html=1;startSize=30;fillColor=#d5e8d4;strokeColor=#82b366;fontStyle=1;fontSize=14;spacing=0;spacingBottom=0;" vertex="1" parent="vvx6dF9oFFzj_wwxJC3I-11">
          <mxGeometry x="40" y="270" width="530" height="630" as="geometry">
            <mxRectangle x="41" y="620" width="100" height="30" as="alternateBounds" />
          </mxGeometry>
        </mxCell>
        <mxCell id="HlZ_nk2x4vgZYLSMzNhL-51" style="edgeStyle=orthogonalEdgeStyle;rounded=1;orthogonalLoop=1;jettySize=auto;html=1;exitX=0.25;exitY=0;exitDx=0;exitDy=0;entryX=0.75;entryY=0;entryDx=0;entryDy=0;curved=0;fillColor=#dae8fc;strokeColor=#6c8ebf;" edge="1" parent="vvx6dF9oFFzj_wwxJC3I-27">
          <mxGeometry relative="1" as="geometry">
            <mxPoint x="331" y="69.96999999999935" as="targetPoint" />
          </mxGeometry>
        </mxCell>
        <mxCell id="1pl4DkhEswQTVw0EffvB-148" value="" style="edgeStyle=orthogonalEdgeStyle;rounded=0;orthogonalLoop=1;jettySize=auto;html=1;exitX=0.5;exitY=1;exitDx=0;exitDy=0;entryX=0.5;entryY=0;entryDx=0;entryDy=0;strokeWidth=2;" edge="1" parent="vvx6dF9oFFzj_wwxJC3I-27" source="1pl4DkhEswQTVw0EffvB-133" target="1pl4DkhEswQTVw0EffvB-134">
          <mxGeometry relative="1" as="geometry" />
        </mxCell>
        <mxCell id="1pl4DkhEswQTVw0EffvB-133" value="[LED ON]&lt;div&gt;State&lt;/div&gt;" style="ellipse;whiteSpace=wrap;html=1;fillColor=#d5e8d4;strokeColor=#000000;fontStyle=1;fontSize=13;strokeWidth=2;flipH=1;" vertex="1" parent="vvx6dF9oFFzj_wwxJC3I-27">
          <mxGeometry x="70" y="210" width="100" height="80" as="geometry" />
        </mxCell>
        <mxCell id="1pl4DkhEswQTVw0EffvB-149" value="&lt;div&gt;ADC&lt;/div&gt;Sampling&lt;div&gt;Done&lt;/div&gt;" style="edgeStyle=orthogonalEdgeStyle;rounded=0;orthogonalLoop=1;jettySize=auto;html=1;exitX=1;exitY=0.5;exitDx=0;exitDy=0;entryX=0;entryY=0.5;entryDx=0;entryDy=0;strokeWidth=2;" edge="1" parent="vvx6dF9oFFzj_wwxJC3I-27" source="1pl4DkhEswQTVw0EffvB-134" target="1pl4DkhEswQTVw0EffvB-135">
          <mxGeometry relative="1" as="geometry" />
        </mxCell>
        <mxCell id="1pl4DkhEswQTVw0EffvB-134" value="[ADC Req.]&lt;div&gt;State&lt;/div&gt;" style="ellipse;whiteSpace=wrap;html=1;fillColor=#d5e8d4;strokeColor=#000000;fontStyle=1;fontSize=13;strokeWidth=2;flipH=1;" vertex="1" parent="vvx6dF9oFFzj_wwxJC3I-27">
          <mxGeometry x="70" y="360" width="100" height="80" as="geometry" />
        </mxCell>
        <mxCell id="1pl4DkhEswQTVw0EffvB-150" style="edgeStyle=orthogonalEdgeStyle;rounded=0;orthogonalLoop=1;jettySize=auto;html=1;exitX=0.5;exitY=1;exitDx=0;exitDy=0;entryX=0.5;entryY=0;entryDx=0;entryDy=0;strokeWidth=2;" edge="1" parent="vvx6dF9oFFzj_wwxJC3I-27" source="1pl4DkhEswQTVw0EffvB-135" target="1pl4DkhEswQTVw0EffvB-136">
          <mxGeometry relative="1" as="geometry" />
        </mxCell>
        <mxCell id="1pl4DkhEswQTVw0EffvB-135" value="[ADC Done]&lt;div&gt;State&lt;/div&gt;" style="ellipse;whiteSpace=wrap;html=1;fillColor=#d5e8d4;strokeColor=#000000;fontStyle=1;fontSize=13;strokeWidth=2;flipH=1;" vertex="1" parent="vvx6dF9oFFzj_wwxJC3I-27">
          <mxGeometry x="326" y="360" width="100" height="80" as="geometry" />
        </mxCell>
        <mxCell id="1pl4DkhEswQTVw0EffvB-154" style="edgeStyle=orthogonalEdgeStyle;rounded=0;orthogonalLoop=1;jettySize=auto;html=1;exitX=0;exitY=0.5;exitDx=0;exitDy=0;entryX=0;entryY=0.5;entryDx=0;entryDy=0;strokeWidth=2;" edge="1" parent="vvx6dF9oFFzj_wwxJC3I-27" source="1pl4DkhEswQTVw0EffvB-136" target="1pl4DkhEswQTVw0EffvB-133">
          <mxGeometry relative="1" as="geometry">
            <mxPoint x="70" y="110" as="targetPoint" />
            <Array as="points">
              <mxPoint x="40" y="560" />
              <mxPoint x="40" y="250" />
            </Array>
          </mxGeometry>
        </mxCell>
        <mxCell id="1pl4DkhEswQTVw0EffvB-136" value="[CH Change]&lt;div&gt;State&lt;/div&gt;" style="ellipse;whiteSpace=wrap;html=1;fillColor=#d5e8d4;strokeColor=#000000;fontStyle=1;fontSize=13;strokeWidth=2;" vertex="1" parent="vvx6dF9oFFzj_wwxJC3I-27">
          <mxGeometry x="326" y="520" width="100" height="80" as="geometry" />
        </mxCell>
        <mxCell id="CeIqR9JZjlVY9xYLI966-24" style="edgeStyle=orthogonalEdgeStyle;rounded=1;orthogonalLoop=1;jettySize=auto;html=1;entryX=1;entryY=0;entryDx=0;entryDy=0;curved=0;strokeColor=#97D077;" edge="1" parent="vvx6dF9oFFzj_wwxJC3I-27" source="1pl4DkhEswQTVw0EffvB-158" target="1pl4DkhEswQTVw0EffvB-133">
          <mxGeometry relative="1" as="geometry" />
        </mxCell>
        <mxCell id="1pl4DkhEswQTVw0EffvB-158" value="&lt;font style=&quot;font-size: 10px;&quot;&gt;&lt;span style=&quot;background-color: initial; font-size: 10px;&quot;&gt;LED On Time&lt;/span&gt;&lt;br style=&quot;font-size: 10px;&quot;&gt;&lt;/font&gt;&lt;div style=&quot;line-height: 100%; font-size: 10px;&quot;&gt;&lt;span style=&quot;background-color: initial; font-size: 10px;&quot;&gt;&lt;font style=&quot;font-size: 10px;&quot;&gt;LED On Level&lt;/font&gt;&lt;/span&gt;&lt;/div&gt;&lt;div style=&quot;line-height: 100%; font-size: 10px;&quot;&gt;&lt;span style=&quot;background-color: initial; font-size: 10px;&quot;&gt;&lt;font style=&quot;font-size: 10px;&quot;&gt;ADC Sample Num&lt;/font&gt;&lt;/span&gt;&lt;/div&gt;&lt;div style=&quot;line-height: 100%; font-size: 10px;&quot;&gt;&lt;span style=&quot;background-color: initial; font-size: 10px;&quot;&gt;&lt;font style=&quot;font-size: 10px;&quot;&gt;ADC Delay&lt;/font&gt;&lt;/span&gt;&lt;/div&gt;&lt;div style=&quot;line-height: 100%; font-size: 10px;&quot;&gt;&lt;font style=&quot;font-size: 10px;&quot;&gt;Heater Auto Control&lt;/font&gt;&lt;/div&gt;" style="shape=cylinder3;whiteSpace=wrap;html=1;boundedLbl=1;backgroundOutline=1;size=15;fontSize=10;spacing=0;align=center;fillColor=#d5e8d4;strokeColor=#82b366;fontColor=default;" vertex="1" parent="vvx6dF9oFFzj_wwxJC3I-27">
          <mxGeometry x="326" y="150" width="104" height="100" as="geometry" />
        </mxCell>
        <mxCell id="1pl4DkhEswQTVw0EffvB-164" value="Setting Apply&lt;div&gt;&lt;span style=&quot;background-color: initial;&quot;&gt;Function&lt;/span&gt;&lt;/div&gt;" style="rounded=0;whiteSpace=wrap;html=1;fillColor=#d5e8d4;strokeColor=#82b366;" vertex="1" parent="vvx6dF9oFFzj_wwxJC3I-27">
          <mxGeometry x="326" y="80" width="104" height="40" as="geometry" />
        </mxCell>
        <mxCell id="1pl4DkhEswQTVw0EffvB-165" style="edgeStyle=orthogonalEdgeStyle;rounded=0;orthogonalLoop=1;jettySize=auto;html=1;exitX=0.5;exitY=1;exitDx=0;exitDy=0;entryX=0.5;entryY=0;entryDx=0;entryDy=0;entryPerimeter=0;" edge="1" parent="vvx6dF9oFFzj_wwxJC3I-27" source="1pl4DkhEswQTVw0EffvB-164" target="1pl4DkhEswQTVw0EffvB-158">
          <mxGeometry relative="1" as="geometry" />
        </mxCell>
        <mxCell id="CeIqR9JZjlVY9xYLI966-25" value="LED OFF" style="text;html=1;align=center;verticalAlign=middle;whiteSpace=wrap;rounded=0;fontStyle=1" vertex="1" parent="vvx6dF9oFFzj_wwxJC3I-27">
          <mxGeometry x="350" y="330" width="60" height="30" as="geometry" />
        </mxCell>
        <mxCell id="CeIqR9JZjlVY9xYLI966-26" value="LED ON" style="text;html=1;align=center;verticalAlign=middle;whiteSpace=wrap;rounded=0;fontStyle=1" vertex="1" parent="vvx6dF9oFFzj_wwxJC3I-27">
          <mxGeometry x="170" y="240" width="60" height="30" as="geometry" />
        </mxCell>
        <mxCell id="HlZ_nk2x4vgZYLSMzNhL-12" value="MMI Task" style="swimlane;whiteSpace=wrap;html=1;startSize=30;fillColor=#e1d5e7;strokeColor=#9673a6;fontSize=14;fontStyle=1" vertex="1" parent="vvx6dF9oFFzj_wwxJC3I-11">
          <mxGeometry x="30" y="60" width="540" height="120" as="geometry">
            <mxRectangle x="41" y="620" width="100" height="30" as="alternateBounds" />
          </mxGeometry>
        </mxCell>
        <mxCell id="HlZ_nk2x4vgZYLSMzNhL-13" style="edgeStyle=orthogonalEdgeStyle;rounded=0;orthogonalLoop=1;jettySize=auto;html=1;exitX=0.5;exitY=1;exitDx=0;exitDy=0;entryX=0.5;entryY=0;entryDx=0;entryDy=0;" edge="1" parent="HlZ_nk2x4vgZYLSMzNhL-12">
          <mxGeometry relative="1" as="geometry">
            <mxPoint x="130" y="160" as="sourcePoint" />
          </mxGeometry>
        </mxCell>
        <mxCell id="HlZ_nk2x4vgZYLSMzNhL-24" value="&lt;div style=&quot;font-size: 10px;&quot;&gt;MMI&lt;/div&gt;&lt;div style=&quot;font-size: 10px;&quot;&gt;Decoder&lt;/div&gt;" style="rounded=0;whiteSpace=wrap;html=1;fillColor=#e1d5e7;strokeColor=#9673a6;fontSize=10;fontStyle=1" vertex="1" parent="HlZ_nk2x4vgZYLSMzNhL-12">
          <mxGeometry x="50" y="50" width="120" height="40" as="geometry" />
        </mxCell>
        <mxCell id="HlZ_nk2x4vgZYLSMzNhL-28" value="&lt;div style=&quot;font-size: 10px;&quot;&gt;MMI&lt;br&gt;Send&lt;/div&gt;" style="rounded=0;whiteSpace=wrap;html=1;fillColor=#e1d5e7;strokeColor=#9673a6;fontSize=10;fontStyle=1" vertex="1" parent="HlZ_nk2x4vgZYLSMzNhL-12">
          <mxGeometry x="370" y="50" width="120" height="40" as="geometry" />
        </mxCell>
        <mxCell id="HlZ_nk2x4vgZYLSMzNhL-18" value="Measure&lt;br&gt;Request&lt;div&gt;Command&lt;/div&gt;" style="rounded=0;orthogonalLoop=1;jettySize=auto;html=1;exitX=0.25;exitY=1;exitDx=0;exitDy=0;dashed=1;strokeColor=#9673a6;labelBackgroundColor=none;fillColor=#e1d5e7;elbow=vertical;edgeStyle=orthogonalEdgeStyle;curved=1;strokeWidth=2;dashPattern=1 1;fontStyle=1" edge="1" parent="vvx6dF9oFFzj_wwxJC3I-11" source="HlZ_nk2x4vgZYLSMzNhL-24" target="1pl4DkhEswQTVw0EffvB-133">
          <mxGeometry relative="1" as="geometry">
            <mxPoint x="160" y="340" as="targetPoint" />
            <Array as="points">
              <mxPoint x="110" y="380" />
              <mxPoint x="160" y="380" />
            </Array>
          </mxGeometry>
        </mxCell>
        <mxCell id="HlZ_nk2x4vgZYLSMzNhL-44" value="Send&lt;div&gt;Response&lt;/div&gt;" style="edgeStyle=orthogonalEdgeStyle;rounded=0;orthogonalLoop=1;jettySize=auto;html=1;exitX=1;exitY=0.5;exitDx=0;exitDy=0;entryX=0.5;entryY=1;entryDx=0;entryDy=0;curved=1;dashed=1;strokeColor=#9673a6;labelBackgroundColor=none;fillColor=#e1d5e7;strokeWidth=2;dashPattern=1 1;fontStyle=1" edge="1" parent="vvx6dF9oFFzj_wwxJC3I-11" source="1pl4DkhEswQTVw0EffvB-135" target="HlZ_nk2x4vgZYLSMzNhL-28">
          <mxGeometry relative="1" as="geometry">
            <mxPoint as="offset" />
            <mxPoint x="390" y="249.99999999999955" as="sourcePoint" />
            <Array as="points">
              <mxPoint x="500" y="670" />
              <mxPoint x="500" y="220" />
              <mxPoint x="460" y="220" />
            </Array>
          </mxGeometry>
        </mxCell>
        <mxCell id="1pl4DkhEswQTVw0EffvB-157" value="Measure&lt;br&gt;Setting&lt;div&gt;Command&lt;/div&gt;" style="rounded=0;orthogonalLoop=1;jettySize=auto;html=1;entryX=0.5;entryY=0;entryDx=0;entryDy=0;dashed=1;strokeColor=#9673a6;labelBackgroundColor=none;fillColor=#e1d5e7;exitX=0.75;exitY=1;exitDx=0;exitDy=0;elbow=vertical;edgeStyle=orthogonalEdgeStyle;curved=1;strokeWidth=2;dashPattern=1 1;fontStyle=1" edge="1" parent="vvx6dF9oFFzj_wwxJC3I-11" source="HlZ_nk2x4vgZYLSMzNhL-24" target="1pl4DkhEswQTVw0EffvB-164">
          <mxGeometry relative="1" as="geometry">
            <mxPoint x="164" y="350" as="targetPoint" />
            <mxPoint x="234" y="160" as="sourcePoint" />
            <Array as="points">
              <mxPoint x="170" y="220" />
              <mxPoint x="418" y="220" />
            </Array>
          </mxGeometry>
        </mxCell>
        <mxCell id="1pl4DkhEswQTVw0EffvB-169" value="FSM Task" style="swimlane;whiteSpace=wrap;html=1;startSize=30;fillColor=#f5f5f5;strokeColor=#666666;fontSize=14;fontStyle=1;fontColor=#333333;" vertex="1" parent="vvx6dF9oFFzj_wwxJC3I-11">
          <mxGeometry x="980" y="270" width="420" height="460" as="geometry">
            <mxRectangle x="41" y="620" width="100" height="30" as="alternateBounds" />
          </mxGeometry>
        </mxCell>
        <mxCell id="1pl4DkhEswQTVw0EffvB-170" style="edgeStyle=orthogonalEdgeStyle;rounded=0;orthogonalLoop=1;jettySize=auto;html=1;exitX=0.5;exitY=1;exitDx=0;exitDy=0;entryX=0.5;entryY=0;entryDx=0;entryDy=0;" edge="1" parent="1pl4DkhEswQTVw0EffvB-169">
          <mxGeometry relative="1" as="geometry">
            <mxPoint x="130" y="160" as="sourcePoint" />
          </mxGeometry>
        </mxCell>
        <mxCell id="1pl4DkhEswQTVw0EffvB-187" value="Start" style="edgeStyle=orthogonalEdgeStyle;rounded=0;orthogonalLoop=1;jettySize=auto;html=1;exitX=0;exitY=1;exitDx=0;exitDy=0;entryX=0;entryY=0;entryDx=0;entryDy=0;strokeWidth=2;" edge="1" parent="1pl4DkhEswQTVw0EffvB-169" source="1pl4DkhEswQTVw0EffvB-173" target="1pl4DkhEswQTVw0EffvB-174">
          <mxGeometry relative="1" as="geometry" />
        </mxCell>
        <mxCell id="1pl4DkhEswQTVw0EffvB-173" value="[SLEEP]&lt;div&gt;State&lt;/div&gt;" style="ellipse;whiteSpace=wrap;html=1;fillColor=none;fontStyle=1;fontSize=13;strokeWidth=2;flipH=1;" vertex="1" parent="1pl4DkhEswQTVw0EffvB-169">
          <mxGeometry x="170" y="60" width="100" height="80" as="geometry" />
        </mxCell>
        <mxCell id="1pl4DkhEswQTVw0EffvB-188" value="필요 시&lt;div&gt;구현&lt;/div&gt;" style="edgeStyle=orthogonalEdgeStyle;rounded=0;orthogonalLoop=1;jettySize=auto;html=1;exitX=1;exitY=0;exitDx=0;exitDy=0;entryX=1;entryY=1;entryDx=0;entryDy=0;dashed=1;dashPattern=12 12;opacity=50;" edge="1" parent="1pl4DkhEswQTVw0EffvB-169" source="1pl4DkhEswQTVw0EffvB-174" target="1pl4DkhEswQTVw0EffvB-173">
          <mxGeometry relative="1" as="geometry" />
        </mxCell>
        <mxCell id="1pl4DkhEswQTVw0EffvB-191" value="Test&lt;div&gt;Function&lt;/div&gt;&lt;div&gt;Call&lt;/div&gt;" style="edgeStyle=orthogonalEdgeStyle;rounded=0;orthogonalLoop=1;jettySize=auto;html=1;exitX=0;exitY=0.5;exitDx=0;exitDy=0;entryX=0.5;entryY=0;entryDx=0;entryDy=0;strokeWidth=2;" edge="1" parent="1pl4DkhEswQTVw0EffvB-169" source="1pl4DkhEswQTVw0EffvB-174" target="1pl4DkhEswQTVw0EffvB-181">
          <mxGeometry relative="1" as="geometry" />
        </mxCell>
        <mxCell id="1pl4DkhEswQTVw0EffvB-174" value="[READY]&lt;div&gt;State&lt;/div&gt;" style="ellipse;whiteSpace=wrap;html=1;fillColor=none;fontStyle=1;fontSize=13;strokeWidth=2;flipH=1;" vertex="1" parent="1pl4DkhEswQTVw0EffvB-169">
          <mxGeometry x="170" y="220" width="100" height="80" as="geometry" />
        </mxCell>
        <mxCell id="1pl4DkhEswQTVw0EffvB-190" value="Test&lt;div&gt;Done&lt;/div&gt;" style="edgeStyle=orthogonalEdgeStyle;rounded=0;orthogonalLoop=1;jettySize=auto;html=1;exitX=0;exitY=0.5;exitDx=0;exitDy=0;entryX=0.5;entryY=1;entryDx=0;entryDy=0;dashed=1;dashPattern=8 8;opacity=50;" edge="1" parent="1pl4DkhEswQTVw0EffvB-169" source="1pl4DkhEswQTVw0EffvB-175" target="1pl4DkhEswQTVw0EffvB-174">
          <mxGeometry relative="1" as="geometry" />
        </mxCell>
        <mxCell id="1pl4DkhEswQTVw0EffvB-175" value="[Add..]&lt;div&gt;State&lt;/div&gt;" style="ellipse;whiteSpace=wrap;html=1;fillColor=none;strokeColor=#000000;fontStyle=1;fontSize=13;strokeWidth=2;flipH=1;dashed=1;dashPattern=8 8;opacity=50;" vertex="1" parent="1pl4DkhEswQTVw0EffvB-169">
          <mxGeometry x="300" y="360" width="100" height="80" as="geometry" />
        </mxCell>
        <mxCell id="1pl4DkhEswQTVw0EffvB-192" style="edgeStyle=orthogonalEdgeStyle;rounded=0;orthogonalLoop=1;jettySize=auto;html=1;exitX=1;exitY=0.5;exitDx=0;exitDy=0;entryX=0.5;entryY=1;entryDx=0;entryDy=0;strokeWidth=2;" edge="1" parent="1pl4DkhEswQTVw0EffvB-169" source="1pl4DkhEswQTVw0EffvB-181" target="1pl4DkhEswQTVw0EffvB-174">
          <mxGeometry relative="1" as="geometry" />
        </mxCell>
        <mxCell id="1pl4DkhEswQTVw0EffvB-181" value="[TEST]&lt;div&gt;State&lt;/div&gt;" style="ellipse;whiteSpace=wrap;html=1;fillColor=none;fontStyle=1;fontSize=13;strokeWidth=2;flipH=1;" vertex="1" parent="1pl4DkhEswQTVw0EffvB-169">
          <mxGeometry x="30" y="360" width="100" height="80" as="geometry" />
        </mxCell>
        <mxCell id="1pl4DkhEswQTVw0EffvB-189" value="필요 시&lt;div&gt;State 추가 및&lt;/div&gt;&lt;div&gt;구현&lt;/div&gt;" style="edgeStyle=orthogonalEdgeStyle;rounded=0;orthogonalLoop=1;jettySize=auto;html=1;exitX=1;exitY=0.5;exitDx=0;exitDy=0;entryX=0.457;entryY=0;entryDx=0;entryDy=0;entryPerimeter=0;dashed=1;dashPattern=12 12;opacity=50;" edge="1" parent="1pl4DkhEswQTVw0EffvB-169" source="1pl4DkhEswQTVw0EffvB-174" target="1pl4DkhEswQTVw0EffvB-175">
          <mxGeometry relative="1" as="geometry" />
        </mxCell>
        <mxCell id="CeIqR9JZjlVY9xYLI966-1" value="Temp Control Task" style="swimlane;whiteSpace=wrap;html=1;startSize=30;fillColor=#ffe6cc;strokeColor=#d79b00;fontSize=14;fontStyle=1" vertex="1" parent="vvx6dF9oFFzj_wwxJC3I-11">
          <mxGeometry x="600" y="270" width="350" height="460" as="geometry">
            <mxRectangle x="41" y="620" width="100" height="30" as="alternateBounds" />
          </mxGeometry>
        </mxCell>
        <mxCell id="CeIqR9JZjlVY9xYLI966-2" style="edgeStyle=orthogonalEdgeStyle;rounded=0;orthogonalLoop=1;jettySize=auto;html=1;exitX=0.5;exitY=1;exitDx=0;exitDy=0;entryX=0.5;entryY=0;entryDx=0;entryDy=0;" edge="1" parent="CeIqR9JZjlVY9xYLI966-1">
          <mxGeometry relative="1" as="geometry">
            <mxPoint x="130" y="160" as="sourcePoint" />
          </mxGeometry>
        </mxCell>
        <mxCell id="CeIqR9JZjlVY9xYLI966-17" style="edgeStyle=orthogonalEdgeStyle;rounded=0;orthogonalLoop=1;jettySize=auto;html=1;entryX=0.5;entryY=0;entryDx=0;entryDy=0;" edge="1" parent="CeIqR9JZjlVY9xYLI966-1" source="CeIqR9JZjlVY9xYLI966-4" target="CeIqR9JZjlVY9xYLI966-16">
          <mxGeometry relative="1" as="geometry" />
        </mxCell>
        <mxCell id="CeIqR9JZjlVY9xYLI966-4" value="[Control]&lt;br&gt;State" style="ellipse;whiteSpace=wrap;html=1;fillColor=#FFE6CC;strokeColor=#000000;fontStyle=1;fontSize=13;strokeWidth=2;flipH=1;" vertex="1" parent="CeIqR9JZjlVY9xYLI966-1">
          <mxGeometry x="110" y="140" width="100" height="80" as="geometry" />
        </mxCell>
        <mxCell id="CeIqR9JZjlVY9xYLI966-13" value="온도 데이터&lt;div&gt;업데이트&lt;/div&gt;" style="edgeStyle=orthogonalEdgeStyle;rounded=0;orthogonalLoop=1;jettySize=auto;html=1;exitX=1;exitY=0;exitDx=0;exitDy=0;entryX=0;entryY=0;entryDx=0;entryDy=0;" edge="1" parent="CeIqR9JZjlVY9xYLI966-1" source="CeIqR9JZjlVY9xYLI966-4" target="CeIqR9JZjlVY9xYLI966-4">
          <mxGeometry relative="1" as="geometry">
            <Array as="points">
              <mxPoint x="220" y="152" />
              <mxPoint x="220" y="80" />
              <mxPoint x="100" y="80" />
              <mxPoint x="100" y="152" />
            </Array>
          </mxGeometry>
        </mxCell>
        <mxCell id="CeIqR9JZjlVY9xYLI966-22" value="No" style="edgeStyle=orthogonalEdgeStyle;rounded=0;orthogonalLoop=1;jettySize=auto;html=1;exitX=0;exitY=0.5;exitDx=0;exitDy=0;entryX=0;entryY=0.5;entryDx=0;entryDy=0;" edge="1" parent="CeIqR9JZjlVY9xYLI966-1" source="CeIqR9JZjlVY9xYLI966-16" target="CeIqR9JZjlVY9xYLI966-4">
          <mxGeometry relative="1" as="geometry">
            <Array as="points">
              <mxPoint x="20" y="305" />
              <mxPoint x="20" y="180" />
            </Array>
          </mxGeometry>
        </mxCell>
        <mxCell id="CeIqR9JZjlVY9xYLI966-16" value="Auto&lt;div&gt;Control&lt;/div&gt;&lt;div&gt;Mode?&lt;/div&gt;" style="rhombus;whiteSpace=wrap;html=1;fillColor=#FFE6CC;" vertex="1" parent="CeIqR9JZjlVY9xYLI966-1">
          <mxGeometry x="100" y="270" width="120" height="70" as="geometry" />
        </mxCell>
        <mxCell id="CeIqR9JZjlVY9xYLI966-21" style="edgeStyle=orthogonalEdgeStyle;rounded=0;orthogonalLoop=1;jettySize=auto;html=1;entryX=1;entryY=0.5;entryDx=0;entryDy=0;exitX=0.5;exitY=0;exitDx=0;exitDy=0;" edge="1" parent="CeIqR9JZjlVY9xYLI966-1" source="CeIqR9JZjlVY9xYLI966-19" target="CeIqR9JZjlVY9xYLI966-4">
          <mxGeometry relative="1" as="geometry" />
        </mxCell>
        <mxCell id="CeIqR9JZjlVY9xYLI966-19" value="Heater&lt;div&gt;Control&lt;/div&gt;" style="rounded=0;whiteSpace=wrap;html=1;fillColor=#FFE6CC;" vertex="1" parent="CeIqR9JZjlVY9xYLI966-1">
          <mxGeometry x="260" y="220" width="70" height="40" as="geometry" />
        </mxCell>
        <mxCell id="CeIqR9JZjlVY9xYLI966-20" value="YES" style="edgeStyle=orthogonalEdgeStyle;rounded=0;orthogonalLoop=1;jettySize=auto;html=1;entryX=0.543;entryY=1.01;entryDx=0;entryDy=0;entryPerimeter=0;" edge="1" parent="CeIqR9JZjlVY9xYLI966-1" source="CeIqR9JZjlVY9xYLI966-16" target="CeIqR9JZjlVY9xYLI966-19">
          <mxGeometry relative="1" as="geometry" />
        </mxCell>
        <mxCell id="CeIqR9JZjlVY9xYLI966-23" style="edgeStyle=orthogonalEdgeStyle;rounded=1;orthogonalLoop=1;jettySize=auto;html=1;exitX=1;exitY=0.5;exitDx=0;exitDy=0;exitPerimeter=0;entryX=0.5;entryY=0;entryDx=0;entryDy=0;curved=0;strokeColor=#97D077;" edge="1" parent="vvx6dF9oFFzj_wwxJC3I-11" source="1pl4DkhEswQTVw0EffvB-158" target="CeIqR9JZjlVY9xYLI966-1">
          <mxGeometry relative="1" as="geometry" />
        </mxCell>
        <mxCell id="CeIqR9JZjlVY9xYLI966-27" value="필요 시 활성화" style="text;html=1;align=center;verticalAlign=middle;whiteSpace=wrap;rounded=0;fontStyle=1" vertex="1" parent="vvx6dF9oFFzj_wwxJC3I-11">
          <mxGeometry x="1120" y="240" width="120" height="30" as="geometry" />
        </mxCell>
        <mxCell id="52m-zqw_6dM9t9EO98xM-34" value="" style="edgeStyle=orthogonalEdgeStyle;rounded=0;orthogonalLoop=1;jettySize=auto;html=1;exitX=1;exitY=0.5;exitDx=0;exitDy=0;endArrow=none;endFill=0;startArrow=classic;startFill=1;entryX=0.318;entryY=-0.018;entryDx=0;entryDy=0;entryPerimeter=0;fillColor=#ffe6cc;strokeColor=#d79b00;" edge="1" parent="1" source="52m-zqw_6dM9t9EO98xM-17" target="HlZ_nk2x4vgZYLSMzNhL-3">
          <mxGeometry x="-0.0003" relative="1" as="geometry">
            <mxPoint as="offset" />
            <Array as="points">
              <mxPoint x="400" y="360" />
              <mxPoint x="400" y="500" />
              <mxPoint x="468" y="500" />
            </Array>
            <mxPoint x="440" y="520" as="targetPoint" />
          </mxGeometry>
        </mxCell>
        <mxCell id="52m-zqw_6dM9t9EO98xM-33" style="edgeStyle=orthogonalEdgeStyle;rounded=0;orthogonalLoop=1;jettySize=auto;html=1;exitX=1;exitY=0.5;exitDx=0;exitDy=0;endArrow=none;endFill=0;dashed=1;startArrow=classic;startFill=1;entryX=0;entryY=0.25;entryDx=0;entryDy=0;fillColor=#dae8fc;strokeColor=#6c8ebf;" edge="1" parent="1" source="52m-zqw_6dM9t9EO98xM-22" target="HlZ_nk2x4vgZYLSMzNhL-3">
          <mxGeometry relative="1" as="geometry">
            <Array as="points">
              <mxPoint x="360" y="410" />
              <mxPoint x="360" y="522" />
              <mxPoint x="455" y="522" />
            </Array>
            <mxPoint x="440" y="520" as="targetPoint" />
          </mxGeometry>
        </mxCell>
        <mxCell id="52m-zqw_6dM9t9EO98xM-52" value="2.0V(Max.4.0V)" style="edgeLabel;html=1;align=center;verticalAlign=middle;resizable=0;points=[];" connectable="0" vertex="1" parent="52m-zqw_6dM9t9EO98xM-33">
          <mxGeometry x="0.1032" y="-3" relative="1" as="geometry">
            <mxPoint as="offset" />
          </mxGeometry>
        </mxCell>
        <mxCell id="52m-zqw_6dM9t9EO98xM-40" style="edgeStyle=orthogonalEdgeStyle;rounded=0;orthogonalLoop=1;jettySize=auto;html=1;exitX=1;exitY=0.5;exitDx=0;exitDy=0;entryX=0.375;entryY=1;entryDx=0;entryDy=0;dashed=1;fillColor=#d5e8d4;strokeColor=#82b366;" edge="1" parent="1" source="HlZ_nk2x4vgZYLSMzNhL-59" target="HlZ_nk2x4vgZYLSMzNhL-3">
          <mxGeometry relative="1" as="geometry">
            <Array as="points">
              <mxPoint x="472" y="570" />
            </Array>
          </mxGeometry>
        </mxCell>
        <mxCell id="52m-zqw_6dM9t9EO98xM-41" style="edgeStyle=orthogonalEdgeStyle;rounded=0;orthogonalLoop=1;jettySize=auto;html=1;exitX=1;exitY=0.5;exitDx=0;exitDy=0;entryX=0.375;entryY=1;entryDx=0;entryDy=0;dashed=1;fillColor=#d5e8d4;strokeColor=#82b366;" edge="1" parent="1" source="HlZ_nk2x4vgZYLSMzNhL-61" target="HlZ_nk2x4vgZYLSMzNhL-3">
          <mxGeometry relative="1" as="geometry">
            <mxPoint x="411" y="560" as="targetPoint" />
            <Array as="points">
              <mxPoint x="472" y="680" />
            </Array>
          </mxGeometry>
        </mxCell>
        <mxCell id="52m-zqw_6dM9t9EO98xM-51" value="LED Board" style="swimlane;whiteSpace=wrap;html=1;startSize=30;fillColor=#eeeeee;strokeColor=#36393d;" vertex="1" parent="1">
          <mxGeometry x="41" y="300" width="180" height="190" as="geometry">
            <mxRectangle x="41" y="350" width="100" height="30" as="alternateBounds" />
          </mxGeometry>
        </mxCell>
        <mxCell id="52m-zqw_6dM9t9EO98xM-17" value="Heater_X" style="rounded=0;whiteSpace=wrap;html=1;fillColor=#FFE6CC;fontStyle=1" vertex="1" parent="52m-zqw_6dM9t9EO98xM-51">
          <mxGeometry x="39" y="40" width="100" height="40" as="geometry" />
        </mxCell>
        <UserObject label="BlueLED_X&lt;div&gt;[l470-02]&lt;/div&gt;" link="https://drive.google.com/file/d/1LPwWEMdbp1m16qdgqwtRGrt53ltYmcx5/view?usp=drive_link" linkTarget="_blank" id="52m-zqw_6dM9t9EO98xM-22">
          <mxCell style="rounded=0;whiteSpace=wrap;html=1;fillColor=#CCE5FF;fontStyle=1" vertex="1" parent="52m-zqw_6dM9t9EO98xM-51">
            <mxGeometry x="39" y="90" width="100" height="40" as="geometry" />
          </mxCell>
        </UserObject>
        <mxCell id="B6lQ1i5PWI4iFfDv-VMn-1" value="Temp Sensor&lt;div&gt;[lmt86lp]&lt;/div&gt;" style="rounded=0;whiteSpace=wrap;html=1;fillColor=#F19C99;fontStyle=1" vertex="1" parent="52m-zqw_6dM9t9EO98xM-51">
          <mxGeometry x="40" y="140" width="100" height="40" as="geometry" />
        </mxCell>
        <mxCell id="52m-zqw_6dM9t9EO98xM-53" value="Digital" style="endArrow=classic;html=1;rounded=0;" edge="1" parent="1">
          <mxGeometry width="50" height="50" relative="1" as="geometry">
            <mxPoint x="1400" y="330" as="sourcePoint" />
            <mxPoint x="1480" y="330" as="targetPoint" />
          </mxGeometry>
        </mxCell>
        <mxCell id="52m-zqw_6dM9t9EO98xM-54" value="Analog" style="endArrow=classic;html=1;rounded=0;dashed=1;" edge="1" parent="1">
          <mxGeometry width="50" height="50" relative="1" as="geometry">
            <mxPoint x="1400" y="360" as="sourcePoint" />
            <mxPoint x="1480" y="360" as="targetPoint" />
          </mxGeometry>
        </mxCell>
        <mxCell id="52m-zqw_6dM9t9EO98xM-55" value="Comm" style="endArrow=classic;html=1;rounded=0;dashed=1;startArrow=classic;startFill=1;dashPattern=1 2;" edge="1" parent="1">
          <mxGeometry x="0.0053" width="50" height="50" relative="1" as="geometry">
            <mxPoint x="1400" y="390" as="sourcePoint" />
            <mxPoint x="1480" y="389.76" as="targetPoint" />
            <mxPoint as="offset" />
          </mxGeometry>
        </mxCell>
        <mxCell id="52m-zqw_6dM9t9EO98xM-56" value="MON Board" style="swimlane;whiteSpace=wrap;html=1;startSize=30;fillColor=#eeeeee;strokeColor=#36393d;" vertex="1" parent="1">
          <mxGeometry x="41" y="620" width="180" height="90" as="geometry">
            <mxRectangle x="41" y="620" width="100" height="30" as="alternateBounds" />
          </mxGeometry>
        </mxCell>
        <UserObject label="Photodiode&lt;div&gt;[temd7000x01]&lt;/div&gt;" link="https://drive.google.com/file/d/1LTVRp9lrrWBp_ZnRS-kTeHB8u-Pt3Jk-/view?usp=drive_link" linkTarget="_blank" id="52m-zqw_6dM9t9EO98xM-57">
          <mxCell style="rounded=0;whiteSpace=wrap;html=1;fillColor=#E6FFCC;fontStyle=1" vertex="1" parent="52m-zqw_6dM9t9EO98xM-56">
            <mxGeometry x="40" y="40" width="100" height="40" as="geometry" />
          </mxCell>
        </UserObject>
        <mxCell id="52m-zqw_6dM9t9EO98xM-59" value="RECV Board" style="swimlane;whiteSpace=wrap;html=1;startSize=30;fillColor=#eeeeee;strokeColor=#36393d;" vertex="1" parent="1">
          <mxGeometry x="41" y="510" width="180" height="90" as="geometry">
            <mxRectangle x="41" y="510" width="110" height="30" as="alternateBounds" />
          </mxGeometry>
        </mxCell>
        <UserObject label="Photodiode&lt;div&gt;[s2386-5k]&lt;/div&gt;" link="https://drive.google.com/file/d/1LkZMAXFuG-Z9K4wN6FkEHRix61QcecJb/view?usp=drive_link" linkTarget="_blank" id="52m-zqw_6dM9t9EO98xM-60">
          <mxCell style="rounded=0;whiteSpace=wrap;html=1;fillColor=#E6FFCC;fontStyle=1" vertex="1" parent="52m-zqw_6dM9t9EO98xM-59">
            <mxGeometry x="40" y="40" width="100" height="40" as="geometry" />
          </mxCell>
        </UserObject>
        <mxCell id="52m-zqw_6dM9t9EO98xM-64" style="edgeStyle=orthogonalEdgeStyle;rounded=0;orthogonalLoop=1;jettySize=auto;html=1;exitX=1;exitY=0.5;exitDx=0;exitDy=0;entryX=0;entryY=0.5;entryDx=0;entryDy=0;dashed=1;" edge="1" parent="1" source="52m-zqw_6dM9t9EO98xM-60" target="HlZ_nk2x4vgZYLSMzNhL-59">
          <mxGeometry relative="1" as="geometry" />
        </mxCell>
        <mxCell id="52m-zqw_6dM9t9EO98xM-65" style="edgeStyle=orthogonalEdgeStyle;rounded=0;orthogonalLoop=1;jettySize=auto;html=1;exitX=1;exitY=0.5;exitDx=0;exitDy=0;entryX=0;entryY=0.5;entryDx=0;entryDy=0;dashed=1;" edge="1" parent="1" source="52m-zqw_6dM9t9EO98xM-57" target="HlZ_nk2x4vgZYLSMzNhL-61">
          <mxGeometry relative="1" as="geometry" />
        </mxCell>
        <mxCell id="52m-zqw_6dM9t9EO98xM-66" value="Conn" style="ellipse;whiteSpace=wrap;html=1;fillColor=#EEEEEE;strokeColor=#36393d;" vertex="1" parent="1">
          <mxGeometry x="1390" y="270" width="40" height="40" as="geometry" />
        </mxCell>
        <mxCell id="52m-zqw_6dM9t9EO98xM-68" value="* IC 별 데이터시트는 링크되어 있음&#xa;* 주요 기능 요약&#xa;    1. 3Ch LED ON/OFF제어(DAC63204)&#xa;    2. 3Ch Receive PD 읽기(ADC130B04)&#xa;    3. 3Ch Monitoring PD 읽기(ADC같음)&#xa;    4. FRAM(FM24CL64) 추가&#xa;    5. 3CH 온도 ON/OFF제어(LMT86센서) 추가&#xa;    6. UART to USB(CP2102)" style="text;whiteSpace=wrap;" vertex="1" parent="1">
          <mxGeometry x="180" y="70" width="269" height="130" as="geometry" />
        </mxCell>
        <UserObject label="프로토콜 링크" link="https://docs.google.com/spreadsheets/d/1iVgWoSgRiLqCx96ttahUkXGXZLRHFo8moutK0yeu1j4/edit?gid=759797259#gid=759797259" linkTarget="_blank" id="52m-zqw_6dM9t9EO98xM-70">
          <mxCell style="rounded=1;whiteSpace=wrap;html=1;fontStyle=0;fillColor=#cce5ff;strokeColor=#36393d;" vertex="1" parent="1">
            <mxGeometry x="41" y="70" width="120" height="30" as="geometry" />
          </mxCell>
        </UserObject>
        <mxCell id="52m-zqw_6dM9t9EO98xM-71" value="Main Board" style="swimlane;whiteSpace=wrap;html=1;startSize=30;fillColor=#eeeeee;strokeColor=#36393d;" vertex="1" parent="1">
          <mxGeometry x="420" y="220" width="940" height="690" as="geometry">
            <mxRectangle x="420" y="220" width="100" height="30" as="alternateBounds" />
          </mxGeometry>
        </mxCell>
        <mxCell id="52m-zqw_6dM9t9EO98xM-10" style="edgeStyle=orthogonalEdgeStyle;rounded=0;orthogonalLoop=1;jettySize=auto;html=1;exitX=1;exitY=0.5;exitDx=0;exitDy=0;entryX=0;entryY=0.5;entryDx=0;entryDy=0;" edge="1" parent="52m-zqw_6dM9t9EO98xM-71" source="Cm1VzN3EiIf4p2-mBHPr-1" target="52m-zqw_6dM9t9EO98xM-5">
          <mxGeometry relative="1" as="geometry" />
        </mxCell>
        <UserObject label="USB Interface&lt;div&gt;[cp2102n]&lt;/div&gt;" link="https://drive.google.com/file/d/1KwfZZZlzDuDfmvPcNVRULEoPbjUot8Vy/view?usp=drive_link" linkTarget="_blank" id="Cm1VzN3EiIf4p2-mBHPr-1">
          <mxCell style="rounded=0;whiteSpace=wrap;html=1;fillColor=#E6E6E6;fontStyle=1" vertex="1" parent="52m-zqw_6dM9t9EO98xM-71">
            <mxGeometry x="725" y="430" width="100" height="50" as="geometry" />
          </mxCell>
        </UserObject>
        <mxCell id="Cm1VzN3EiIf4p2-mBHPr-3" value="UART1" style="edgeStyle=orthogonalEdgeStyle;rounded=0;orthogonalLoop=1;jettySize=auto;html=1;exitX=1;exitY=0.75;exitDx=0;exitDy=0;startArrow=classic;startFill=1;dashed=1;dashPattern=1 2;entryX=0;entryY=0.5;entryDx=0;entryDy=0;" edge="1" parent="52m-zqw_6dM9t9EO98xM-71" source="Cm1VzN3EiIf4p2-mBHPr-2" target="Cm1VzN3EiIf4p2-mBHPr-1">
          <mxGeometry relative="1" as="geometry">
            <mxPoint x="755" y="455" as="targetPoint" />
          </mxGeometry>
        </mxCell>
        <mxCell id="Cm1VzN3EiIf4p2-mBHPr-7" value="I2C1" style="edgeStyle=orthogonalEdgeStyle;rounded=0;orthogonalLoop=1;jettySize=auto;html=1;exitX=0.75;exitY=1;exitDx=0;exitDy=0;entryX=0.5;entryY=0;entryDx=0;entryDy=0;startArrow=classicThin;startFill=1;dashed=1;dashPattern=1 2;" edge="1" parent="52m-zqw_6dM9t9EO98xM-71" source="Cm1VzN3EiIf4p2-mBHPr-2" target="Cm1VzN3EiIf4p2-mBHPr-6">
          <mxGeometry relative="1" as="geometry" />
        </mxCell>
        <mxCell id="tkyJQwrHFZhG7NHuBLMi-1" value="SPI1" style="edgeStyle=orthogonalEdgeStyle;rounded=0;orthogonalLoop=1;jettySize=auto;html=1;exitX=0.25;exitY=1;exitDx=0;exitDy=0;entryX=0.75;entryY=0;entryDx=0;entryDy=0;startArrow=classic;startFill=1;dashed=1;dashPattern=1 2;" edge="1" parent="52m-zqw_6dM9t9EO98xM-71" source="Cm1VzN3EiIf4p2-mBHPr-2" target="6sLNyEFbP399j9jLoJoM-1">
          <mxGeometry relative="1" as="geometry" />
        </mxCell>
        <mxCell id="tkyJQwrHFZhG7NHuBLMi-3" value="I2C2" style="edgeStyle=orthogonalEdgeStyle;rounded=0;orthogonalLoop=1;jettySize=auto;html=1;exitX=0.25;exitY=0;exitDx=0;exitDy=0;entryX=1;entryY=0.5;entryDx=0;entryDy=0;startArrow=classic;startFill=1;dashed=1;dashPattern=1 2;" edge="1" parent="52m-zqw_6dM9t9EO98xM-71" source="Cm1VzN3EiIf4p2-mBHPr-2" target="tkyJQwrHFZhG7NHuBLMi-2">
          <mxGeometry relative="1" as="geometry">
            <mxPoint as="offset" />
          </mxGeometry>
        </mxCell>
        <mxCell id="52m-zqw_6dM9t9EO98xM-2" value="GPIO" style="edgeStyle=orthogonalEdgeStyle;rounded=0;orthogonalLoop=1;jettySize=auto;html=1;exitX=0.75;exitY=0;exitDx=0;exitDy=0;entryX=1;entryY=0.5;entryDx=0;entryDy=0;" edge="1" parent="52m-zqw_6dM9t9EO98xM-71" source="Cm1VzN3EiIf4p2-mBHPr-2" target="52m-zqw_6dM9t9EO98xM-63">
          <mxGeometry relative="1" as="geometry" />
        </mxCell>
        <mxCell id="52m-zqw_6dM9t9EO98xM-19" value="GPIO" style="edgeStyle=orthogonalEdgeStyle;rounded=0;orthogonalLoop=1;jettySize=auto;html=1;exitX=0.5;exitY=0;exitDx=0;exitDy=0;entryX=1;entryY=0.5;entryDx=0;entryDy=0;" edge="1" parent="52m-zqw_6dM9t9EO98xM-71" source="Cm1VzN3EiIf4p2-mBHPr-2" target="52m-zqw_6dM9t9EO98xM-61">
          <mxGeometry x="-0.0302" relative="1" as="geometry">
            <mxPoint x="425" y="150" as="targetPoint" />
            <mxPoint as="offset" />
          </mxGeometry>
        </mxCell>
        <mxCell id="Cm1VzN3EiIf4p2-mBHPr-2" value="MCU" style="rounded=0;whiteSpace=wrap;html=1;fillColor=#CCCCCC;strokeColor=#36393d;fontStyle=1" vertex="1" parent="52m-zqw_6dM9t9EO98xM-71">
          <mxGeometry x="455" y="320" width="180" height="180" as="geometry" />
        </mxCell>
        <UserObject label="FRAM&lt;div&gt;[fm24cl64b]&lt;/div&gt;&lt;div&gt;0b1010000X&lt;/div&gt;" link="https://drive.google.com/file/d/1KwnBPkeg-DpJwat_b3nEgaPI4UbcblsQ/view?usp=drive_link" linkTarget="_blank" id="Cm1VzN3EiIf4p2-mBHPr-6">
          <mxCell style="rounded=0;whiteSpace=wrap;html=1;fillColor=#E5CCFF;fontStyle=1" vertex="1" parent="52m-zqw_6dM9t9EO98xM-71">
            <mxGeometry x="585" y="590" width="110" height="60" as="geometry" />
          </mxCell>
        </UserObject>
        <UserObject label="ADC (16bit)&lt;div&gt;&lt;div&gt;[ads130b04qpwr]&lt;/div&gt;&lt;/div&gt;" link="https://drive.google.com/file/d/1KzROSC_DbMv1jXPTSP8YsQ3oB490qjZq/view?usp=drive_web" linkTarget="_blank" id="6sLNyEFbP399j9jLoJoM-1">
          <mxCell style="rounded=0;whiteSpace=wrap;html=1;fillColor=#E6FFCC;fontStyle=1" vertex="1" parent="52m-zqw_6dM9t9EO98xM-71">
            <mxGeometry x="375" y="590" width="110" height="60" as="geometry" />
          </mxCell>
        </UserObject>
        <mxCell id="52m-zqw_6dM9t9EO98xM-48" style="edgeStyle=orthogonalEdgeStyle;rounded=0;orthogonalLoop=1;jettySize=auto;html=1;exitX=0;exitY=0.5;exitDx=0;exitDy=0;entryX=1;entryY=0.5;entryDx=0;entryDy=0;endArrow=classic;endFill=1;dashed=1;fillColor=#dae8fc;strokeColor=#6c8ebf;" edge="1" parent="52m-zqw_6dM9t9EO98xM-71" source="tkyJQwrHFZhG7NHuBLMi-2" target="52m-zqw_6dM9t9EO98xM-46">
          <mxGeometry relative="1" as="geometry" />
        </mxCell>
        <UserObject label="DAC (12bit)&lt;div&gt;&lt;div&gt;[dac63204]&lt;/div&gt;&lt;/div&gt;&lt;div&gt;0b1001000X&lt;/div&gt;" link="https://drive.google.com/file/d/1L0mWtt7zyAb2i0tZzJZkrlPnpnjMVqaD/view?usp=drive_link" linkTarget="_blank" id="tkyJQwrHFZhG7NHuBLMi-2">
          <mxCell style="rounded=0;whiteSpace=wrap;html=1;fillColor=#CCE5FF;fontStyle=1" vertex="1" parent="52m-zqw_6dM9t9EO98xM-71">
            <mxGeometry x="330" y="190" width="110" height="60" as="geometry" />
          </mxCell>
        </UserObject>
        <mxCell id="52m-zqw_6dM9t9EO98xM-20" value="" style="edgeStyle=orthogonalEdgeStyle;rounded=0;orthogonalLoop=1;jettySize=auto;html=1;entryX=0.696;entryY=0.011;entryDx=0;entryDy=0;endArrow=classic;endFill=1;entryPerimeter=0;fillColor=#ffe6cc;strokeColor=#d79b00;" edge="1" parent="52m-zqw_6dM9t9EO98xM-71" source="52m-zqw_6dM9t9EO98xM-63" target="HlZ_nk2x4vgZYLSMzNhL-3">
          <mxGeometry relative="1" as="geometry">
            <mxPoint x="74.14213562373106" y="295.85786437626894" as="targetPoint" />
            <Array as="points">
              <mxPoint x="120" y="90" />
              <mxPoint x="120" y="280" />
              <mxPoint x="73" y="280" />
            </Array>
          </mxGeometry>
        </mxCell>
        <mxCell id="52m-zqw_6dM9t9EO98xM-47" style="edgeStyle=orthogonalEdgeStyle;rounded=0;orthogonalLoop=1;jettySize=auto;html=1;entryX=1;entryY=0.5;entryDx=0;entryDy=0;endArrow=classic;endFill=1;dashed=1;exitX=0;exitY=0.5;exitDx=0;exitDy=0;fillColor=#dae8fc;strokeColor=#6c8ebf;" edge="1" parent="52m-zqw_6dM9t9EO98xM-71" source="52m-zqw_6dM9t9EO98xM-61" target="52m-zqw_6dM9t9EO98xM-46">
          <mxGeometry relative="1" as="geometry">
            <mxPoint x="295" y="150" as="sourcePoint" />
          </mxGeometry>
        </mxCell>
        <mxCell id="52m-zqw_6dM9t9EO98xM-5" value="J1" style="ellipse;whiteSpace=wrap;html=1;fillColor=#eeeeee;strokeColor=#36393d;" vertex="1" parent="52m-zqw_6dM9t9EO98xM-71">
          <mxGeometry x="855" y="435" width="40" height="40" as="geometry" />
        </mxCell>
        <mxCell id="52m-zqw_6dM9t9EO98xM-45" value="SWDIO" style="edgeStyle=orthogonalEdgeStyle;rounded=0;orthogonalLoop=1;jettySize=auto;html=1;exitX=0;exitY=0.5;exitDx=0;exitDy=0;entryX=1;entryY=0.25;entryDx=0;entryDy=0;startArrow=classic;startFill=1;dashed=1;dashPattern=1 2;" edge="1" parent="52m-zqw_6dM9t9EO98xM-71" source="52m-zqw_6dM9t9EO98xM-6" target="Cm1VzN3EiIf4p2-mBHPr-2">
          <mxGeometry relative="1" as="geometry" />
        </mxCell>
        <mxCell id="52m-zqw_6dM9t9EO98xM-6" value="J2" style="ellipse;whiteSpace=wrap;html=1;fillColor=#eeeeee;strokeColor=#36393d;" vertex="1" parent="52m-zqw_6dM9t9EO98xM-71">
          <mxGeometry x="855" y="345" width="40" height="40" as="geometry" />
        </mxCell>
        <mxCell id="52m-zqw_6dM9t9EO98xM-31" style="edgeStyle=orthogonalEdgeStyle;rounded=0;orthogonalLoop=1;jettySize=auto;html=1;exitX=0.625;exitY=1;exitDx=0;exitDy=0;entryX=0;entryY=0.5;entryDx=0;entryDy=0;dashed=1;fillColor=#d5e8d4;strokeColor=#82b366;" edge="1" parent="52m-zqw_6dM9t9EO98xM-71" source="HlZ_nk2x4vgZYLSMzNhL-3" target="izEDOr1USTJMJzZZYncF-2">
          <mxGeometry relative="1" as="geometry">
            <Array as="points">
              <mxPoint x="70" y="330" />
              <mxPoint x="70" y="460" />
            </Array>
            <mxPoint x="74.14213562373106" y="324.14213562373106" as="sourcePoint" />
          </mxGeometry>
        </mxCell>
        <mxCell id="52m-zqw_6dM9t9EO98xM-42" style="edgeStyle=orthogonalEdgeStyle;rounded=0;orthogonalLoop=1;jettySize=auto;html=1;exitX=0.625;exitY=1;exitDx=0;exitDy=0;entryX=0;entryY=0.5;entryDx=0;entryDy=0;dashed=1;fillColor=#d5e8d4;strokeColor=#82b366;" edge="1" parent="52m-zqw_6dM9t9EO98xM-71" source="HlZ_nk2x4vgZYLSMzNhL-3" target="izEDOr1USTJMJzZZYncF-1">
          <mxGeometry relative="1" as="geometry">
            <Array as="points">
              <mxPoint x="70" y="330" />
              <mxPoint x="70" y="350" />
            </Array>
            <mxPoint x="74.14213562373106" y="324.14213562373106" as="sourcePoint" />
          </mxGeometry>
        </mxCell>
        <mxCell id="52m-zqw_6dM9t9EO98xM-13" value="5VD/12V" style="edgeStyle=orthogonalEdgeStyle;rounded=0;orthogonalLoop=1;jettySize=auto;html=1;exitX=0.5;exitY=1;exitDx=0;exitDy=0;" edge="1" parent="52m-zqw_6dM9t9EO98xM-71" source="52m-zqw_6dM9t9EO98xM-12">
          <mxGeometry relative="1" as="geometry">
            <mxPoint x="865" y="170" as="targetPoint" />
          </mxGeometry>
        </mxCell>
        <mxCell id="52m-zqw_6dM9t9EO98xM-12" value="J6" style="ellipse;whiteSpace=wrap;html=1;fillColor=#eeeeee;strokeColor=#36393d;" vertex="1" parent="52m-zqw_6dM9t9EO98xM-71">
          <mxGeometry x="845" y="80" width="40" height="40" as="geometry" />
        </mxCell>
        <mxCell id="52m-zqw_6dM9t9EO98xM-50" style="edgeStyle=orthogonalEdgeStyle;rounded=0;orthogonalLoop=1;jettySize=auto;html=1;exitX=1;exitY=0.5;exitDx=0;exitDy=0;entryX=0;entryY=0.5;entryDx=0;entryDy=0;dashed=1;endArrow=classic;endFill=1;" edge="1" parent="52m-zqw_6dM9t9EO98xM-71" source="52m-zqw_6dM9t9EO98xM-23" target="6sLNyEFbP399j9jLoJoM-1">
          <mxGeometry relative="1" as="geometry" />
        </mxCell>
        <UserObject label="MUX&lt;div&gt;[tmux1104]&lt;/div&gt;" link="https://drive.google.com/file/d/1KogwfGjCzkd68tpcM4DYPwJ9AiiGNpW-/view?usp=drive_link" linkTarget="_blank" id="52m-zqw_6dM9t9EO98xM-23">
          <mxCell style="rounded=0;whiteSpace=wrap;html=1;fillColor=#E6FFCC;fontStyle=1" vertex="1" parent="52m-zqw_6dM9t9EO98xM-71">
            <mxGeometry x="265" y="590" width="80" height="60" as="geometry" />
          </mxCell>
        </UserObject>
        <mxCell id="52m-zqw_6dM9t9EO98xM-30" style="edgeStyle=orthogonalEdgeStyle;rounded=0;orthogonalLoop=1;jettySize=auto;html=1;exitX=1;exitY=0.5;exitDx=0;exitDy=0;entryX=0.25;entryY=0;entryDx=0;entryDy=0;" edge="1" parent="52m-zqw_6dM9t9EO98xM-71" source="izEDOr1USTJMJzZZYncF-1" target="6sLNyEFbP399j9jLoJoM-1">
          <mxGeometry relative="1" as="geometry" />
        </mxCell>
        <mxCell id="52m-zqw_6dM9t9EO98xM-29" style="edgeStyle=orthogonalEdgeStyle;rounded=0;orthogonalLoop=1;jettySize=auto;html=1;exitX=1;exitY=0.5;exitDx=0;exitDy=0;entryX=0.5;entryY=0;entryDx=0;entryDy=0;" edge="1" parent="52m-zqw_6dM9t9EO98xM-71" source="izEDOr1USTJMJzZZYncF-2" target="52m-zqw_6dM9t9EO98xM-23">
          <mxGeometry relative="1" as="geometry">
            <Array as="points">
              <mxPoint x="305" y="460" />
            </Array>
          </mxGeometry>
        </mxCell>
        <mxCell id="52m-zqw_6dM9t9EO98xM-49" style="edgeStyle=orthogonalEdgeStyle;rounded=0;orthogonalLoop=1;jettySize=auto;html=1;exitX=0;exitY=0.5;exitDx=0;exitDy=0;endArrow=classic;endFill=1;dashed=1;entryX=1;entryY=0.25;entryDx=0;entryDy=0;fillColor=#dae8fc;strokeColor=#6c8ebf;" edge="1" parent="52m-zqw_6dM9t9EO98xM-71" source="52m-zqw_6dM9t9EO98xM-46" target="HlZ_nk2x4vgZYLSMzNhL-3">
          <mxGeometry relative="1" as="geometry">
            <Array as="points">
              <mxPoint x="140" y="195" />
              <mxPoint x="140" y="302" />
              <mxPoint x="92" y="302" />
            </Array>
            <mxPoint x="120" y="310" as="targetPoint" />
          </mxGeometry>
        </mxCell>
        <mxCell id="52m-zqw_6dM9t9EO98xM-46" value="&lt;div&gt;Analog&lt;/div&gt;Switch" style="rhombus;whiteSpace=wrap;html=1;fillColor=#CCE5FF;fontStyle=1" vertex="1" parent="52m-zqw_6dM9t9EO98xM-71">
          <mxGeometry x="200" y="170" width="80" height="50" as="geometry" />
        </mxCell>
        <mxCell id="52m-zqw_6dM9t9EO98xM-61" value="LED_CH_X&lt;div&gt;(Active Low)&lt;/div&gt;" style="shape=hexagon;perimeter=hexagonPerimeter2;whiteSpace=wrap;html=1;fixedSize=1;fillColor=#CCE5FF;" vertex="1" parent="52m-zqw_6dM9t9EO98xM-71">
          <mxGeometry x="330" y="130" width="110" height="40" as="geometry" />
        </mxCell>
        <mxCell id="52m-zqw_6dM9t9EO98xM-63" value="Heater_CH_X&lt;div&gt;(Active High)&lt;/div&gt;" style="shape=hexagon;perimeter=hexagonPerimeter2;whiteSpace=wrap;html=1;fixedSize=1;fillColor=#FFE6CC;" vertex="1" parent="52m-zqw_6dM9t9EO98xM-71">
          <mxGeometry x="330" y="70" width="110" height="40" as="geometry" />
        </mxCell>
        <mxCell id="HlZ_nk2x4vgZYLSMzNhL-4" value="ADC" style="edgeStyle=orthogonalEdgeStyle;rounded=0;orthogonalLoop=1;jettySize=auto;html=1;exitX=1;exitY=0.5;exitDx=0;exitDy=0;entryX=0;entryY=0.25;entryDx=0;entryDy=0;fillColor=#f8cecc;strokeColor=#b85450;" edge="1" parent="52m-zqw_6dM9t9EO98xM-71" source="HlZ_nk2x4vgZYLSMzNhL-3" target="Cm1VzN3EiIf4p2-mBHPr-2">
          <mxGeometry relative="1" as="geometry">
            <mxPoint x="460" y="310.0952380952381" as="targetPoint" />
            <Array as="points">
              <mxPoint x="430" y="310" />
              <mxPoint x="430" y="365" />
            </Array>
          </mxGeometry>
        </mxCell>
        <mxCell id="HlZ_nk2x4vgZYLSMzNhL-3" value="J3-5" style="shape=hexagon;perimeter=hexagonPerimeter2;whiteSpace=wrap;html=1;fixedSize=1;fillColor=#E6E6E6;rounded=0;" vertex="1" parent="52m-zqw_6dM9t9EO98xM-71">
          <mxGeometry x="27.5" y="290" width="65" height="40" as="geometry" />
        </mxCell>
        <mxCell id="izEDOr1USTJMJzZZYncF-1" value="&lt;font style=&quot;vertical-align: inherit;&quot;&gt;&lt;font style=&quot;vertical-align: inherit;&quot;&gt;RP_SIG_X&lt;/font&gt;&lt;/font&gt;" style="shape=parallelogram;perimeter=parallelogramPerimeter;whiteSpace=wrap;html=1;fixedSize=1;fillColor=#E6FFCC;" vertex="1" parent="52m-zqw_6dM9t9EO98xM-71">
          <mxGeometry x="192" y="330" width="90" height="40" as="geometry" />
        </mxCell>
        <mxCell id="izEDOr1USTJMJzZZYncF-2" value="&lt;font style=&quot;vertical-align: inherit;&quot;&gt;&lt;font style=&quot;vertical-align: inherit;&quot;&gt;MP_SIG_X&lt;/font&gt;&lt;/font&gt;" style="shape=parallelogram;perimeter=parallelogramPerimeter;whiteSpace=wrap;html=1;fixedSize=1;fillColor=#E6FFCC;" vertex="1" parent="52m-zqw_6dM9t9EO98xM-71">
          <mxGeometry x="192" y="440" width="90" height="40" as="geometry" />
        </mxCell>
        <mxCell id="HlZ_nk2x4vgZYLSMzNhL-2" style="edgeStyle=orthogonalEdgeStyle;rounded=0;orthogonalLoop=1;jettySize=auto;html=1;exitX=1;exitY=0.5;exitDx=0;exitDy=0;entryX=0;entryY=0.5;entryDx=0;entryDy=0;fillColor=#f8cecc;strokeColor=#b85450;" edge="1" parent="1" source="B6lQ1i5PWI4iFfDv-VMn-1" target="HlZ_nk2x4vgZYLSMzNhL-3">
          <mxGeometry relative="1" as="geometry">
            <mxPoint x="450" y="560" as="targetPoint" />
            <Array as="points">
              <mxPoint x="340" y="460" />
              <mxPoint x="340" y="530" />
            </Array>
          </mxGeometry>
        </mxCell>
        <mxCell id="HlZ_nk2x4vgZYLSMzNhL-5" value="Conn" style="shape=hexagon;perimeter=hexagonPerimeter2;whiteSpace=wrap;html=1;fixedSize=1;fillColor=#EEEEEE;" vertex="1" parent="1">
          <mxGeometry x="1440" y="270" width="65" height="40" as="geometry" />
        </mxCell>
        <mxCell id="HlZ_nk2x4vgZYLSMzNhL-59" value="RP_SIG_X" style="shape=parallelogram;perimeter=parallelogramPerimeter;whiteSpace=wrap;html=1;fixedSize=1;fillColor=#E6FFCC;" vertex="1" parent="1">
          <mxGeometry x="260" y="550" width="90" height="40" as="geometry" />
        </mxCell>
        <mxCell id="HlZ_nk2x4vgZYLSMzNhL-61" value="MP_SIG_X" style="shape=parallelogram;perimeter=parallelogramPerimeter;whiteSpace=wrap;html=1;fixedSize=1;fillColor=#E6FFCC;" vertex="1" parent="1">
          <mxGeometry x="260" y="660" width="90" height="40" as="geometry" />
        </mxCell>
        <mxCell id="HlZ_nk2x4vgZYLSMzNhL-63" value="Major Pins" style="shape=parallelogram;perimeter=parallelogramPerimeter;whiteSpace=wrap;html=1;fixedSize=1;" vertex="1" parent="1">
          <mxGeometry x="1400" y="220" width="100" height="40" as="geometry" />
        </mxCell>
        <mxCell id="1pl4DkhEswQTVw0EffvB-1" value="HAL&lt;div&gt;Layer&lt;/div&gt;" style="swimlane;whiteSpace=wrap;html=1;startSize=80;fillColor=#eeeeee;strokeColor=#CCCCCC;direction=north;" vertex="1" parent="1">
          <mxGeometry x="50" y="1150" width="1240" height="100" as="geometry">
            <mxRectangle x="1560" y="1580" width="100" height="30" as="alternateBounds" />
          </mxGeometry>
        </mxCell>
        <UserObject label="Led&lt;div&gt;Hal Driver&lt;/div&gt;" link="https://drive.google.com/file/d/1L0mWtt7zyAb2i0tZzJZkrlPnpnjMVqaD/view?usp=drive_link" linkTarget="_blank" id="1pl4DkhEswQTVw0EffvB-43">
          <mxCell style="rounded=0;whiteSpace=wrap;html=1;fillColor=#CCE5FF;fontStyle=1" vertex="1" parent="1pl4DkhEswQTVw0EffvB-1">
            <mxGeometry x="780" y="30" width="110" height="40" as="geometry" />
          </mxCell>
        </UserObject>
        <UserObject label="PD&lt;br&gt;Hal Driver" link="https://drive.google.com/file/d/1L0mWtt7zyAb2i0tZzJZkrlPnpnjMVqaD/view?usp=drive_link" linkTarget="_blank" id="1pl4DkhEswQTVw0EffvB-44">
          <mxCell style="rounded=0;whiteSpace=wrap;html=1;fillColor=#E6FFCC;fontStyle=1" vertex="1" parent="1pl4DkhEswQTVw0EffvB-1">
            <mxGeometry x="500" y="30" width="230" height="40" as="geometry" />
          </mxCell>
        </UserObject>
        <mxCell id="1pl4DkhEswQTVw0EffvB-46" value="Temperature&lt;br&gt;Hal Driver" style="rounded=0;whiteSpace=wrap;html=1;fillColor=#F19C99;fontStyle=1" vertex="1" parent="1pl4DkhEswQTVw0EffvB-1">
          <mxGeometry x="300" y="30" width="110" height="40" as="geometry" />
        </mxCell>
        <mxCell id="1pl4DkhEswQTVw0EffvB-89" value="TEST" style="ellipse;whiteSpace=wrap;html=1;fillColor=#eeeeee;strokeColor=#36393d;" vertex="1" parent="1pl4DkhEswQTVw0EffvB-1">
          <mxGeometry x="130" y="30" width="60" height="40" as="geometry" />
        </mxCell>
        <UserObject label="FRAM&lt;div&gt;Hal Driver&lt;/div&gt;" link="https://drive.google.com/file/d/1L0mWtt7zyAb2i0tZzJZkrlPnpnjMVqaD/view?usp=drive_link" linkTarget="_blank" id="QkfzD3Cspx6OPwy0FToS-1">
          <mxCell style="rounded=0;whiteSpace=wrap;html=1;fillColor=#e5ccff;fontStyle=1" vertex="1" parent="1pl4DkhEswQTVw0EffvB-1">
            <mxGeometry x="940" y="30" width="110" height="40" as="geometry" />
          </mxCell>
        </UserObject>
        <mxCell id="1pl4DkhEswQTVw0EffvB-65" style="edgeStyle=orthogonalEdgeStyle;rounded=0;orthogonalLoop=1;jettySize=auto;html=1;exitX=0.5;exitY=0;exitDx=0;exitDy=0;entryX=0.5;entryY=1;entryDx=0;entryDy=0;" edge="1" parent="1" source="izEDOr1USTJMJzZZYncF-4" target="1pl4DkhEswQTVw0EffvB-43">
          <mxGeometry relative="1" as="geometry" />
        </mxCell>
        <mxCell id="1pl4DkhEswQTVw0EffvB-66" style="edgeStyle=orthogonalEdgeStyle;rounded=0;orthogonalLoop=1;jettySize=auto;html=1;entryX=0.5;entryY=1;entryDx=0;entryDy=0;" edge="1" parent="1" target="1pl4DkhEswQTVw0EffvB-68">
          <mxGeometry relative="1" as="geometry">
            <mxPoint x="1044.9999999999995" y="1080" as="targetPoint" />
            <mxPoint x="1045" y="1180" as="sourcePoint" />
          </mxGeometry>
        </mxCell>
        <mxCell id="1pl4DkhEswQTVw0EffvB-64" style="edgeStyle=orthogonalEdgeStyle;rounded=0;orthogonalLoop=1;jettySize=auto;html=1;exitX=0.5;exitY=0;exitDx=0;exitDy=0;entryX=0.5;entryY=1;entryDx=0;entryDy=0;" edge="1" parent="1" source="izEDOr1USTJMJzZZYncF-6" target="1pl4DkhEswQTVw0EffvB-44">
          <mxGeometry relative="1" as="geometry" />
        </mxCell>
        <mxCell id="1pl4DkhEswQTVw0EffvB-67" style="edgeStyle=orthogonalEdgeStyle;rounded=0;orthogonalLoop=1;jettySize=auto;html=1;exitX=0.5;exitY=0;exitDx=0;exitDy=0;entryX=0.5;entryY=1;entryDx=0;entryDy=0;" edge="1" parent="1" source="izEDOr1USTJMJzZZYncF-8" target="1pl4DkhEswQTVw0EffvB-46">
          <mxGeometry relative="1" as="geometry" />
        </mxCell>
        <mxCell id="1pl4DkhEswQTVw0EffvB-71" style="edgeStyle=orthogonalEdgeStyle;rounded=0;orthogonalLoop=1;jettySize=auto;html=1;exitX=0.5;exitY=0;exitDx=0;exitDy=0;entryX=0.5;entryY=1;entryDx=0;entryDy=0;" edge="1" parent="1" source="1pl4DkhEswQTVw0EffvB-43" target="1pl4DkhEswQTVw0EffvB-47">
          <mxGeometry relative="1" as="geometry" />
        </mxCell>
        <mxCell id="1pl4DkhEswQTVw0EffvB-70" style="edgeStyle=orthogonalEdgeStyle;rounded=0;orthogonalLoop=1;jettySize=auto;html=1;exitX=0.5;exitY=0;exitDx=0;exitDy=0;entryX=0.5;entryY=1;entryDx=0;entryDy=0;" edge="1" parent="1" source="1pl4DkhEswQTVw0EffvB-44" target="1pl4DkhEswQTVw0EffvB-47">
          <mxGeometry relative="1" as="geometry" />
        </mxCell>
        <mxCell id="1pl4DkhEswQTVw0EffvB-69" style="edgeStyle=orthogonalEdgeStyle;rounded=0;orthogonalLoop=1;jettySize=auto;html=1;exitX=0.5;exitY=0;exitDx=0;exitDy=0;entryX=0.5;entryY=1;entryDx=0;entryDy=0;" edge="1" parent="1" source="1pl4DkhEswQTVw0EffvB-46" target="1pl4DkhEswQTVw0EffvB-47">
          <mxGeometry relative="1" as="geometry" />
        </mxCell>
        <mxCell id="1pl4DkhEswQTVw0EffvB-60" style="edgeStyle=orthogonalEdgeStyle;rounded=0;orthogonalLoop=1;jettySize=auto;html=1;exitX=0.5;exitY=0;exitDx=0;exitDy=0;entryX=0.5;entryY=1;entryDx=0;entryDy=0;" edge="1" parent="1" source="1pl4DkhEswQTVw0EffvB-49" target="izEDOr1USTJMJzZZYncF-8">
          <mxGeometry relative="1" as="geometry" />
        </mxCell>
        <mxCell id="1pl4DkhEswQTVw0EffvB-58" style="edgeStyle=orthogonalEdgeStyle;rounded=0;orthogonalLoop=1;jettySize=auto;html=1;exitX=0.5;exitY=0;exitDx=0;exitDy=0;entryX=0.75;entryY=1;entryDx=0;entryDy=0;" edge="1" parent="1" source="1pl4DkhEswQTVw0EffvB-50" target="izEDOr1USTJMJzZZYncF-4">
          <mxGeometry relative="1" as="geometry">
            <Array as="points">
              <mxPoint x="980" y="1440" />
              <mxPoint x="912" y="1440" />
            </Array>
          </mxGeometry>
        </mxCell>
        <mxCell id="1pl4DkhEswQTVw0EffvB-59" style="edgeStyle=orthogonalEdgeStyle;rounded=0;orthogonalLoop=1;jettySize=auto;html=1;exitX=0.5;exitY=0;exitDx=0;exitDy=0;entryX=0.5;entryY=1;entryDx=0;entryDy=0;" edge="1" parent="1" source="1pl4DkhEswQTVw0EffvB-50" target="izEDOr1USTJMJzZZYncF-5">
          <mxGeometry relative="1" as="geometry">
            <Array as="points">
              <mxPoint x="980" y="1440" />
              <mxPoint x="1045" y="1440" />
            </Array>
          </mxGeometry>
        </mxCell>
        <mxCell id="1pl4DkhEswQTVw0EffvB-62" style="edgeStyle=orthogonalEdgeStyle;rounded=0;orthogonalLoop=1;jettySize=auto;html=1;exitX=0.5;exitY=0;exitDx=0;exitDy=0;entryX=0.5;entryY=1;entryDx=0;entryDy=0;" edge="1" parent="1" source="1pl4DkhEswQTVw0EffvB-51" target="izEDOr1USTJMJzZZYncF-6">
          <mxGeometry relative="1" as="geometry" />
        </mxCell>
        <mxCell id="1pl4DkhEswQTVw0EffvB-55" style="edgeStyle=orthogonalEdgeStyle;rounded=0;orthogonalLoop=1;jettySize=auto;html=1;exitX=0.5;exitY=0;exitDx=0;exitDy=0;entryX=0.25;entryY=1;entryDx=0;entryDy=0;" edge="1" parent="1" source="1pl4DkhEswQTVw0EffvB-52" target="izEDOr1USTJMJzZZYncF-6">
          <mxGeometry relative="1" as="geometry">
            <Array as="points">
              <mxPoint x="535" y="1440" />
              <mxPoint x="607" y="1440" />
            </Array>
          </mxGeometry>
        </mxCell>
        <mxCell id="1pl4DkhEswQTVw0EffvB-56" style="edgeStyle=orthogonalEdgeStyle;rounded=0;orthogonalLoop=1;jettySize=auto;html=1;exitX=0.25;exitY=0;exitDx=0;exitDy=0;entryX=0.75;entryY=1;entryDx=0;entryDy=0;" edge="1" parent="1" source="1pl4DkhEswQTVw0EffvB-53" target="izEDOr1USTJMJzZZYncF-6">
          <mxGeometry relative="1" as="geometry">
            <Array as="points">
              <mxPoint x="768" y="1440" />
              <mxPoint x="722" y="1440" />
            </Array>
          </mxGeometry>
        </mxCell>
        <mxCell id="1pl4DkhEswQTVw0EffvB-73" style="edgeStyle=orthogonalEdgeStyle;rounded=0;orthogonalLoop=1;jettySize=auto;html=1;exitX=0.5;exitY=0;exitDx=0;exitDy=0;entryX=0;entryY=0.5;entryDx=0;entryDy=0;" edge="1" parent="1" source="1pl4DkhEswQTVw0EffvB-63" target="1pl4DkhEswQTVw0EffvB-47">
          <mxGeometry relative="1" as="geometry" />
        </mxCell>
        <mxCell id="1pl4DkhEswQTVw0EffvB-75" style="edgeStyle=orthogonalEdgeStyle;rounded=0;orthogonalLoop=1;jettySize=auto;html=1;exitX=0.5;exitY=0;exitDx=0;exitDy=0;entryX=1;entryY=0.5;entryDx=0;entryDy=0;" edge="1" parent="1" source="1pl4DkhEswQTVw0EffvB-63" target="1pl4DkhEswQTVw0EffvB-74">
          <mxGeometry relative="1" as="geometry" />
        </mxCell>
        <mxCell id="1pl4DkhEswQTVw0EffvB-78" value="Driver&lt;div&gt;Layer&lt;/div&gt;" style="swimlane;whiteSpace=wrap;html=1;startSize=80;fillColor=#eeeeee;strokeColor=#CCCCCC;direction=north;" vertex="1" parent="1">
          <mxGeometry x="50" y="1250" width="1240" height="180" as="geometry">
            <mxRectangle x="41" y="350" width="100" height="30" as="alternateBounds" />
          </mxGeometry>
        </mxCell>
        <UserObject label="&lt;div&gt;DAC&lt;/div&gt;&lt;div&gt;[dac63204]&lt;br&gt;&lt;/div&gt;&lt;div&gt;Driver&lt;/div&gt;" link="https://drive.google.com/file/d/1L0mWtt7zyAb2i0tZzJZkrlPnpnjMVqaD/view?usp=drive_link" linkTarget="_blank" id="izEDOr1USTJMJzZZYncF-4">
          <mxCell style="rounded=0;whiteSpace=wrap;html=1;fillColor=#CCE5FF;fontStyle=1" vertex="1" parent="1pl4DkhEswQTVw0EffvB-78">
            <mxGeometry x="780" y="30" width="110" height="60" as="geometry" />
          </mxCell>
        </UserObject>
        <UserObject label="FRAM&lt;div&gt;[fm24cl64b]&lt;br&gt;&lt;/div&gt;&lt;div&gt;Driver&lt;/div&gt;" link="https://drive.google.com/file/d/1KwnBPkeg-DpJwat_b3nEgaPI4UbcblsQ/view?usp=drive_link" linkTarget="_blank" id="izEDOr1USTJMJzZZYncF-5">
          <mxCell style="rounded=0;whiteSpace=wrap;html=1;fillColor=#E5CCFF;fontStyle=1" vertex="1" parent="1pl4DkhEswQTVw0EffvB-78">
            <mxGeometry x="940" y="30" width="110" height="60" as="geometry" />
          </mxCell>
        </UserObject>
        <UserObject label="ADC&lt;div&gt;&lt;div&gt;[ads130b04]&lt;/div&gt;&lt;/div&gt;&lt;div&gt;driver&lt;/div&gt;" link="https://drive.google.com/file/d/1KzROSC_DbMv1jXPTSP8YsQ3oB490qjZq/view?usp=drive_web" linkTarget="_blank" id="izEDOr1USTJMJzZZYncF-6">
          <mxCell style="rounded=0;whiteSpace=wrap;html=1;fillColor=#E6FFCC;fontStyle=1" vertex="1" parent="1pl4DkhEswQTVw0EffvB-78">
            <mxGeometry x="500" y="30" width="230" height="60" as="geometry" />
          </mxCell>
        </UserObject>
        <mxCell id="izEDOr1USTJMJzZZYncF-8" value="Temp Sensor&lt;div&gt;[lmt86lp]&lt;/div&gt;&lt;div&gt;Driver&lt;/div&gt;" style="rounded=0;whiteSpace=wrap;html=1;fillColor=#F19C99;fontStyle=1" vertex="1" parent="1pl4DkhEswQTVw0EffvB-78">
          <mxGeometry x="300" y="30" width="110" height="60" as="geometry" />
        </mxCell>
        <mxCell id="1pl4DkhEswQTVw0EffvB-94" style="edgeStyle=orthogonalEdgeStyle;rounded=0;orthogonalLoop=1;jettySize=auto;html=1;exitX=0.5;exitY=0;exitDx=0;exitDy=0;entryX=0.5;entryY=1;entryDx=0;entryDy=0;" edge="1" parent="1pl4DkhEswQTVw0EffvB-78" source="1pl4DkhEswQTVw0EffvB-90" target="1pl4DkhEswQTVw0EffvB-93">
          <mxGeometry relative="1" as="geometry" />
        </mxCell>
        <UserObject label="UART&amp;nbsp;&lt;span style=&quot;background-color: initial;&quot;&gt;Driver&lt;/span&gt;" link="https://drive.google.com/file/d/1KwnBPkeg-DpJwat_b3nEgaPI4UbcblsQ/view?usp=drive_link" linkTarget="_blank" id="1pl4DkhEswQTVw0EffvB-90">
          <mxCell style="rounded=0;whiteSpace=wrap;html=1;fillColor=#E0F6FF;fontStyle=1" vertex="1" parent="1pl4DkhEswQTVw0EffvB-78">
            <mxGeometry x="1100" y="70" width="110" height="30" as="geometry" />
          </mxCell>
        </UserObject>
        <UserObject label="Log Util" link="https://drive.google.com/file/d/1KwnBPkeg-DpJwat_b3nEgaPI4UbcblsQ/view?usp=drive_link" linkTarget="_blank" id="1pl4DkhEswQTVw0EffvB-93">
          <mxCell style="rounded=0;whiteSpace=wrap;html=1;fillColor=#E0F6FF;fontStyle=1" vertex="1" parent="1pl4DkhEswQTVw0EffvB-78">
            <mxGeometry x="1100" y="20" width="110" height="30" as="geometry" />
          </mxCell>
        </UserObject>
        <mxCell id="1pl4DkhEswQTVw0EffvB-141" style="edgeStyle=orthogonalEdgeStyle;rounded=0;orthogonalLoop=1;jettySize=auto;html=1;exitX=0.5;exitY=0;exitDx=0;exitDy=0;entryX=0.25;entryY=1;entryDx=0;entryDy=0;" edge="1" parent="1pl4DkhEswQTVw0EffvB-78" source="1pl4DkhEswQTVw0EffvB-137" target="izEDOr1USTJMJzZZYncF-4">
          <mxGeometry relative="1" as="geometry" />
        </mxCell>
        <UserObject label="&lt;div&gt;[tmux1104]&lt;br&gt;&lt;/div&gt;" link="https://drive.google.com/file/d/1L0mWtt7zyAb2i0tZzJZkrlPnpnjMVqaD/view?usp=drive_link" linkTarget="_blank" id="1pl4DkhEswQTVw0EffvB-137">
          <mxCell style="rounded=0;whiteSpace=wrap;html=1;fillColor=#CCE5FF;fontStyle=1" vertex="1" parent="1pl4DkhEswQTVw0EffvB-78">
            <mxGeometry x="760" y="120" width="80" height="30" as="geometry" />
          </mxCell>
        </UserObject>
        <mxCell id="1pl4DkhEswQTVw0EffvB-82" value="STM32&lt;div&gt;Layer&lt;/div&gt;" style="swimlane;whiteSpace=wrap;html=1;startSize=80;fillColor=#eeeeee;strokeColor=#CCCCCC;direction=north;" vertex="1" parent="1">
          <mxGeometry x="50" y="1430" width="1240" height="100" as="geometry">
            <mxRectangle x="41" y="350" width="100" height="30" as="alternateBounds" />
          </mxGeometry>
        </mxCell>
        <mxCell id="1pl4DkhEswQTVw0EffvB-49" value="ADC" style="rounded=0;whiteSpace=wrap;html=1;fillColor=#E6E6E6;fontStyle=1" vertex="1" parent="1pl4DkhEswQTVw0EffvB-82">
          <mxGeometry x="300" y="40" width="110" height="30" as="geometry" />
        </mxCell>
        <mxCell id="1pl4DkhEswQTVw0EffvB-50" value="I2C" style="rounded=0;whiteSpace=wrap;html=1;fillColor=#E6E6E6;fontStyle=1" vertex="1" parent="1pl4DkhEswQTVw0EffvB-82">
          <mxGeometry x="820" y="40" width="220" height="30" as="geometry" />
        </mxCell>
        <mxCell id="1pl4DkhEswQTVw0EffvB-51" value="SPI" style="rounded=0;whiteSpace=wrap;html=1;fillColor=#E6E6E6;fontStyle=1" vertex="1" parent="1pl4DkhEswQTVw0EffvB-82">
          <mxGeometry x="560" y="40" width="110" height="30" as="geometry" />
        </mxCell>
        <mxCell id="1pl4DkhEswQTVw0EffvB-52" value="GPIO Interrupt" style="rounded=0;whiteSpace=wrap;html=1;fillColor=#E6E6E6;fontStyle=1" vertex="1" parent="1pl4DkhEswQTVw0EffvB-82">
          <mxGeometry x="430" y="40" width="110" height="30" as="geometry" />
        </mxCell>
        <mxCell id="1pl4DkhEswQTVw0EffvB-53" value="GPIO Control" style="rounded=0;whiteSpace=wrap;html=1;fillColor=#E6E6E6;fontStyle=1" vertex="1" parent="1pl4DkhEswQTVw0EffvB-82">
          <mxGeometry x="690" y="40" width="110" height="30" as="geometry" />
        </mxCell>
        <mxCell id="1pl4DkhEswQTVw0EffvB-63" value="TIMER" style="rounded=0;whiteSpace=wrap;html=1;fillColor=#E6E6E6;fontStyle=1" vertex="1" parent="1pl4DkhEswQTVw0EffvB-82">
          <mxGeometry x="210" y="40" width="70" height="30" as="geometry" />
        </mxCell>
        <mxCell id="1pl4DkhEswQTVw0EffvB-91" value="USART" style="rounded=0;whiteSpace=wrap;html=1;fillColor=#E6E6E6;fontStyle=1" vertex="1" parent="1pl4DkhEswQTVw0EffvB-82">
          <mxGeometry x="1100" y="40" width="110" height="30" as="geometry" />
        </mxCell>
        <mxCell id="1pl4DkhEswQTVw0EffvB-83" value="App&lt;br&gt;Layer" style="swimlane;whiteSpace=wrap;html=1;startSize=80;fillColor=#eeeeee;strokeColor=#CCCCCC;direction=north;" vertex="1" parent="1">
          <mxGeometry x="50" y="990" width="1240" height="160" as="geometry">
            <mxRectangle x="41" y="350" width="100" height="30" as="alternateBounds" />
          </mxGeometry>
        </mxCell>
        <mxCell id="1pl4DkhEswQTVw0EffvB-76" style="edgeStyle=orthogonalEdgeStyle;rounded=0;orthogonalLoop=1;jettySize=auto;html=1;exitX=1;exitY=0.25;exitDx=0;exitDy=0;entryX=0;entryY=0.25;entryDx=0;entryDy=0;" edge="1" parent="1pl4DkhEswQTVw0EffvB-83" source="1pl4DkhEswQTVw0EffvB-47" target="1pl4DkhEswQTVw0EffvB-68">
          <mxGeometry relative="1" as="geometry" />
        </mxCell>
        <UserObject label="Measure Task" link="https://drive.google.com/file/d/1L0mWtt7zyAb2i0tZzJZkrlPnpnjMVqaD/view?usp=drive_link" linkTarget="_blank" id="1pl4DkhEswQTVw0EffvB-47">
          <mxCell style="rounded=0;whiteSpace=wrap;html=1;fillColor=#d5e8d4;fontStyle=1;strokeColor=#82b366;" vertex="1" parent="1pl4DkhEswQTVw0EffvB-83">
            <mxGeometry x="370" y="50" width="490" height="40" as="geometry" />
          </mxCell>
        </UserObject>
        <mxCell id="1pl4DkhEswQTVw0EffvB-77" style="edgeStyle=orthogonalEdgeStyle;rounded=0;orthogonalLoop=1;jettySize=auto;html=1;exitX=0;exitY=0.75;exitDx=0;exitDy=0;entryX=1;entryY=0.75;entryDx=0;entryDy=0;" edge="1" parent="1pl4DkhEswQTVw0EffvB-83" source="1pl4DkhEswQTVw0EffvB-68" target="1pl4DkhEswQTVw0EffvB-47">
          <mxGeometry relative="1" as="geometry" />
        </mxCell>
        <UserObject label="MMI Task" link="https://drive.google.com/file/d/1L0mWtt7zyAb2i0tZzJZkrlPnpnjMVqaD/view?usp=drive_link" linkTarget="_blank" id="1pl4DkhEswQTVw0EffvB-68">
          <mxCell style="rounded=0;whiteSpace=wrap;html=1;fillColor=#e1d5e7;fontStyle=1;strokeColor=#9673a6;" vertex="1" parent="1pl4DkhEswQTVw0EffvB-83">
            <mxGeometry x="940" y="50" width="110" height="40" as="geometry" />
          </mxCell>
        </UserObject>
        <UserObject label="FSM Task" link="https://drive.google.com/file/d/1L0mWtt7zyAb2i0tZzJZkrlPnpnjMVqaD/view?usp=drive_link" linkTarget="_blank" id="1pl4DkhEswQTVw0EffvB-74">
          <mxCell style="rounded=0;whiteSpace=wrap;html=1;fillColor=#dae8fc;fontStyle=1;strokeColor=#6c8ebf;" vertex="1" parent="1pl4DkhEswQTVw0EffvB-83">
            <mxGeometry x="110" y="50" width="100" height="40" as="geometry" />
          </mxCell>
        </UserObject>
        <mxCell id="1pl4DkhEswQTVw0EffvB-95" value="All" style="ellipse;whiteSpace=wrap;html=1;fillColor=#eeeeee;strokeColor=#36393d;" vertex="1" parent="1pl4DkhEswQTVw0EffvB-83">
          <mxGeometry x="1120" y="50" width="70" height="40" as="geometry" />
        </mxCell>
        <mxCell id="1pl4DkhEswQTVw0EffvB-87" value="Test Code&lt;div&gt;동작 시 사용&lt;/div&gt;" style="edgeStyle=orthogonalEdgeStyle;rounded=0;orthogonalLoop=1;jettySize=auto;html=1;exitX=0.5;exitY=1;exitDx=0;exitDy=0;entryX=0.5;entryY=0;entryDx=0;entryDy=0;strokeColor=default;dashed=1;dashPattern=8 8;" edge="1" parent="1" source="1pl4DkhEswQTVw0EffvB-74" target="1pl4DkhEswQTVw0EffvB-89">
          <mxGeometry relative="1" as="geometry" />
        </mxCell>
        <mxCell id="1pl4DkhEswQTVw0EffvB-92" style="edgeStyle=orthogonalEdgeStyle;rounded=0;orthogonalLoop=1;jettySize=auto;html=1;exitX=0.5;exitY=0;exitDx=0;exitDy=0;entryX=0.5;entryY=1;entryDx=0;entryDy=0;" edge="1" parent="1" source="1pl4DkhEswQTVw0EffvB-91" target="1pl4DkhEswQTVw0EffvB-90">
          <mxGeometry relative="1" as="geometry" />
        </mxCell>
        <mxCell id="1pl4DkhEswQTVw0EffvB-96" value="System&lt;br&gt;Log 동작" style="edgeStyle=orthogonalEdgeStyle;rounded=0;orthogonalLoop=1;jettySize=auto;html=1;exitX=0.5;exitY=0;exitDx=0;exitDy=0;entryX=0.5;entryY=1;entryDx=0;entryDy=0;" edge="1" parent="1" source="1pl4DkhEswQTVw0EffvB-93" target="1pl4DkhEswQTVw0EffvB-95">
          <mxGeometry relative="1" as="geometry" />
        </mxCell>
        <mxCell id="1pl4DkhEswQTVw0EffvB-140" style="edgeStyle=orthogonalEdgeStyle;rounded=0;orthogonalLoop=1;jettySize=auto;html=1;exitX=0.75;exitY=0;exitDx=0;exitDy=0;entryX=0.5;entryY=1;entryDx=0;entryDy=0;" edge="1" parent="1" source="1pl4DkhEswQTVw0EffvB-53" target="1pl4DkhEswQTVw0EffvB-137">
          <mxGeometry relative="1" as="geometry">
            <Array as="points">
              <mxPoint x="822" y="1440" />
              <mxPoint x="850" y="1440" />
            </Array>
          </mxGeometry>
        </mxCell>
        <mxCell id="QkfzD3Cspx6OPwy0FToS-2" style="edgeStyle=orthogonalEdgeStyle;rounded=0;orthogonalLoop=1;jettySize=auto;html=1;exitX=0.5;exitY=0;exitDx=0;exitDy=0;entryX=0.5;entryY=1;entryDx=0;entryDy=0;" edge="1" parent="1" source="izEDOr1USTJMJzZZYncF-5" target="QkfzD3Cspx6OPwy0FToS-1">
          <mxGeometry relative="1" as="geometry" />
        </mxCell>
      </root>
    </mxGraphModel>
  </diagram>
</mxfile>
